<svg xmlns="http://www.w3.org/2000/svg" viewBox="0 0 429.86 576.96"><defs><style>.cls-1{fill:#e796ff;}.cls-2{fill:#29475e;}.cls-3{fill:#4830a2;}.cls-4{fill:#483063;}.cls-5{fill:#603063;}.cls-6{fill:#48302c;}.cls-7{fill:#201659;}.cls-8{fill:#394e53;}.cls-9{fill:#afd8e2;}.cls-10{fill:#efdfce;}.cls-11{fill:#e2d3cc;}.cls-12{fill:#cfcae5;}.cls-13{fill:#e8e9eb;}.cls-14{fill:#d3c8c2;}.cls-15{fill:#c6b6ac;}.cls-16{fill:#b7bccd;}.cls-17{fill:#a1afb4;}.cls-18{fill:#b7a5bf;}.cls-19{fill:#c2c3c7;}.cls-20{fill:#d1d3d4;}.cls-21{fill:#a7bcdb;}.cls-22{fill:#777fa0;}.cls-23{fill:#626bdd;}.cls-24{fill:#7e91c1;}.cls-25{fill:#338a9e;}.cls-26{fill:#a7d0db;}.cls-27{fill:#bfd3e2;}.cls-28{fill:#717bc6;}.cls-29{fill:#e7ffe6;}.cls-30{fill:#defcff;}.cls-31{fill:#e7daff;}.cls-32{fill:#d7e8f7;}.cls-33{fill:#a799db;}.cls-34{fill:#91a9d8;}.cls-35{fill:#99aac6;}.cls-36{fill:#5d679b;}.cls-37{fill:#59617a;}.cls-38{fill:#575756;}.cls-39{fill:#69524c;}.cls-40{fill:#0c5b8c;}.cls-41{fill:#295b60;}.cls-42{fill:#aa9fe2;}.cls-43{fill:#a5c2d3;}.cls-44{fill:#c0ebf2;}.cls-45{fill:#feffe6;}.cls-46{fill:#fef8cb;}.cls-47{fill:#c0b6e0;}.cls-48{fill:#6e877f;}.cls-49{fill:#444b4c;}.cls-50{fill:#526386;}.cls-51{fill:#87b0c4;}.cls-52{fill:#62a8c4;}.cls-53{fill:#8ccadb;}.cls-54{fill:#5381ff;}.cls-55{fill:#8a979b;}.cls-56{fill:#755984;}.cls-57{fill:#53b1db;}.cls-58{fill:#727271;}.cls-59{fill:#b2967d;}.cls-60{fill:#53b1ff;}.cls-61{fill:#78b9dd;}</style></defs><title>Asset 1</title><g id="Layer_2" data-name="Layer 2"><g id="Layer_1-2" data-name="Layer 1"><path class="cls-1" d="M148,204.71c-5.61,1.89-11.68.09-17.47,1.58s-11,4.07-16.51,6c-.86.29-.49,1.66.37,1.37,5.21-1.79,10.24-4,15.5-5.68,6.12-1.89,12.49.14,18.47-1.87C149.24,205.78,148.87,204.42,148,204.71Z"/><path class="cls-1" d="M121.27,234.15l-.47.47a.71.71,0,0,0,1,1l.47-.47A.71.71,0,0,0,121.27,234.15Z"/><path class="cls-1" d="M48.87,380a7.45,7.45,0,0,1-.84,2.95c-.4.82.82,1.54,1.22.71a9.17,9.17,0,0,0,1-3.66A.71.71,0,0,0,48.87,380Z"/><polygon class="cls-2" points="126.92 118.9 162.19 83.36 174.49 101.86 126.92 118.9"/><polygon class="cls-3" points="162.19 83.36 139.49 84.33 126.92 118.9 162.19 83.36"/><polygon class="cls-4" points="139.49 84.33 150.88 71.15 162.19 83.36 139.49 84.33"/><polygon class="cls-5" points="139.49 84.33 130.03 71.15 150.88 71.15 139.49 84.33"/><polygon class="cls-6" points="130.03 71.15 128.23 47 150.88 71.15 130.03 71.15"/><polygon class="cls-7" points="130.03 71.15 104.78 41.89 128.23 47 130.03 71.15"/><polygon class="cls-8" points="104.78 41.89 104.04 21.25 128.23 47 104.78 41.89"/><polygon class="cls-4" points="104.78 41.89 79.97 19.39 104.04 21.25 104.78 41.89"/><polygon class="cls-3" points="79.97 19.39 93.16 5.12 104.04 21.25 79.97 19.39"/><polygon class="cls-8" points="79.97 19.39 81.39 0 93.16 5.12 79.97 19.39"/><polygon class="cls-2" points="79.97 19.39 57.36 21.36 81.39 0 79.97 19.39"/><polygon class="cls-3" points="57.36 21.36 66.75 29.95 79.97 19.39 57.36 21.36"/><polygon class="cls-7" points="57.36 21.36 50.94 47.27 66.75 29.95 57.36 21.36"/><polygon class="cls-4" points="66.75 89.08 84.56 93.31 104.78 71.15 66.75 89.08"/><polygon class="cls-8" points="84.56 93.31 84.34 129.78 101.04 144.07 84.56 93.31"/><polygon class="cls-9" points="84.56 93.31 126.92 118.9 101.04 144.07 84.56 93.31"/><polygon class="cls-10" points="84.56 93.31 104.78 71.15 126.92 118.9 84.56 93.31"/><polygon class="cls-11" points="104.78 71.15 130.03 71.15 126.92 118.9 104.78 71.15"/><polygon class="cls-12" points="130.03 71.15 139.49 84.33 126.92 118.9 130.03 71.15"/><polygon class="cls-13" points="66.75 89.08 42.97 78.92 63.65 123.65 66.75 89.08"/><polygon class="cls-10" points="42.97 78.92 50.94 47.27 66.75 89.08 42.97 78.92"/><polygon class="cls-14" points="66.75 89.08 84.34 129.78 63.65 123.65 66.75 89.08"/><polygon class="cls-15" points="66.75 89.08 84.34 129.78 84.56 93.31 66.75 89.08"/><polygon class="cls-16" points="63.65 123.65 78.5 160.48 84.34 129.78 63.65 123.65"/><polygon class="cls-17" points="84.34 129.78 101.04 144.07 78.5 160.48 84.34 129.78"/><polygon class="cls-18" points="78.5 160.48 36.08 133.93 69.84 139 78.5 160.48"/><polygon class="cls-19" points="36.08 133.93 63.65 123.65 69.84 139 36.08 133.93"/><polygon class="cls-20" points="63.65 123.65 39.5 109.41 42.97 78.92 63.65 123.65"/><polygon class="cls-21" points="39.5 109.41 44.35 130.84 63.65 123.65 39.5 109.41"/><polygon class="cls-22" points="79.97 19.39 104.78 71.15 104.78 41.89 79.97 19.39"/><polygon class="cls-23" points="104.78 41.89 130.03 71.15 104.78 71.15 104.78 41.89"/><polygon class="cls-24" points="79.97 19.39 66.75 29.95 104.78 71.15 79.97 19.39"/><polygon class="cls-25" points="66.75 29.95 50.94 47.27 104.78 71.15 66.75 29.95"/><polygon class="cls-26" points="133.09 208.23 110.92 213.66 156 226.52 133.09 208.23"/><polygon class="cls-27" points="110.92 213.66 123.7 232.01 151.52 224.75 110.92 213.66"/><polygon class="cls-28" points="50.94 47.27 66.75 89.08 104.78 71.15 50.94 47.27"/><polygon class="cls-29" points="123.7 232.01 108.59 240.28 136.75 249.63 123.7 232.01"/><polygon class="cls-6" points="165.77 241.84 172.38 264.19 150.74 253.6 165.77 241.84"/><polygon class="cls-4" points="165.77 241.84 176.21 242.07 172.38 264.19 165.77 241.84"/><polygon class="cls-22" points="110.92 213.66 151.52 203.71 126.68 170.66 110.92 213.66"/><polygon class="cls-22" points="174.85 180.85 78.5 160.48 101.04 144.07 174.85 180.85"/><polygon class="cls-14" points="151.52 203.71 160.02 229.74 133.09 208.23 151.52 203.71"/><polygon class="cls-30" points="151.52 203.71 175.89 202.64 165.77 241.84 160.02 229.74 151.52 203.71"/><polygon class="cls-31" points="174.85 180.85 175.89 202.64 151.52 203.71 174.85 180.85"/><polygon class="cls-13" points="174.85 180.85 191.61 203.71 175.89 202.64 174.85 180.85"/><polygon class="cls-32" points="175.89 202.64 190.77 242.39 165.77 241.84 175.89 202.64"/><polygon class="cls-26" points="175.89 202.64 191.61 203.71 190.77 242.39 175.89 202.64"/><polygon class="cls-24" points="191.61 203.71 214.93 216.72 190.77 242.39 191.61 203.71"/><polygon class="cls-33" points="190.77 242.39 214.93 274.73 214.93 216.72 190.77 242.39"/><polygon class="cls-34" points="190.77 242.39 192.79 293.86 214.93 274.73 190.77 242.39"/><polygon class="cls-35" points="192.79 293.86 214.93 340.82 214.93 274.73 192.79 293.86"/><polygon class="cls-18" points="192.79 293.86 178.6 354.33 214.93 340.82 192.79 293.86"/><polygon class="cls-20" points="172.38 264.19 190.77 242.39 176.21 242.07 172.38 264.19"/><polygon class="cls-23" points="174.85 180.85 214.93 170.09 191.61 203.71 174.85 180.85"/><polygon class="cls-25" points="191.61 203.71 214.93 170.09 214.93 216.72 191.61 203.71"/><polygon class="cls-36" points="174.85 180.85 214.93 103.06 214.93 170.09 174.85 180.85"/><polygon class="cls-37" points="174.85 180.85 174.49 101.86 199.32 133.36 174.85 180.85"/><polygon class="cls-38" points="174.49 101.86 126.92 118.9 174.85 180.85 174.49 101.86"/><polygon class="cls-38" points="174.49 101.86 198.21 100.65 199.32 133.36 174.49 101.86"/><polygon class="cls-39" points="174.49 101.86 184.3 77.29 198.21 100.65 174.49 101.86"/><polygon class="cls-40" points="198.21 100.65 214.93 103.06 199.32 133.36 198.21 100.65"/><polygon class="cls-3" points="198.21 100.65 206.6 75.35 214.93 103.06 198.21 100.65"/><polygon class="cls-41" points="184.3 77.29 162.19 83.36 174.49 101.86 184.3 77.29"/><polygon class="cls-23" points="126.92 118.9 101.04 144.07 174.85 180.85 126.92 118.9"/><polygon class="cls-34" points="151.52 203.71 174.85 180.85 126.68 170.66 151.52 203.71"/><polygon class="cls-28" points="108.59 240.28 94.03 277.95 37.6 289.66 108.59 240.28"/><polygon class="cls-34" points="108.59 240.28 122.43 265.11 101.04 259.81 108.59 240.28"/><polygon class="cls-42" points="122.43 265.11 121.53 292.61 135.66 296.76 122.43 265.11"/><polygon class="cls-17" points="122.43 265.11 101.04 259.81 121.53 292.61 122.43 265.11"/><polygon class="cls-17" points="94.03 277.95 89.77 306.94 37.6 289.66 94.03 277.95"/><polygon class="cls-43" points="94.03 277.95 106.67 324.1 89.77 306.94 94.03 277.95"/><polygon class="cls-43" points="94.03 277.95 101.04 259.81 121.53 292.61 94.03 277.95"/><polygon class="cls-44" points="178.6 354.33 179.03 370.84 201.31 345.84 178.6 354.33"/><polygon class="cls-45" points="178.6 354.33 144.74 380.93 181.57 391.54 178.6 354.33"/><polygon class="cls-46" points="144.74 380.93 153.86 412.81 181.57 391.54 144.74 380.93"/><polygon class="cls-29" points="178.6 354.33 146.22 345.31 144.74 380.93 178.6 354.33"/><polygon class="cls-44" points="146.22 345.31 192.79 293.86 178.6 354.33 146.22 345.31"/><polygon class="cls-12" points="144.74 380.93 134.81 368.88 146.22 345.31 144.74 380.93"/><polygon class="cls-12" points="201.31 345.84 214.93 354.33 192.79 355.05 201.31 345.84"/><polygon class="cls-47" points="201.31 345.84 214.93 340.82 214.93 354.33 201.31 345.84"/><polygon class="cls-40" points="134.81 368.88 132.45 379.91 144.74 380.93 134.81 368.88"/><polygon class="cls-23" points="132.45 379.91 153.86 412.81 144.74 380.93 132.45 379.91"/><polygon class="cls-16" points="181.57 391.54 198.02 413.58 183.66 409.88 181.57 391.54"/><polygon class="cls-13" points="138.83 269.44 150.86 253.66 136.75 249.63 138.83 269.44"/><polygon class="cls-20" points="181.57 391.54 183.66 409.88 153.86 412.81 181.57 391.54"/><path class="cls-16" d="M183.66,409.88"/><polygon class="cls-48" points="214.93 417.97 183.66 409.88 188.72 421.8 214.93 417.97"/><polygon class="cls-41" points="188.72 421.8 173.91 427.35 214.93 424.57 214.93 417.97 188.72 421.8"/><polygon class="cls-2" points="173.91 427.35 195.85 435.96 214.93 435.19 214.93 424.57 173.91 427.35"/><polygon class="cls-18" points="183.66 409.88 173.91 427.35 188.72 421.8 183.66 409.88"/><polygon class="cls-16" points="183.66 409.88 153.86 412.81 173.91 427.35 183.66 409.88"/><polygon class="cls-46" points="108.59 240.28 136.75 249.63 122.43 265.11 108.59 240.28"/><polygon class="cls-29" points="136.75 249.63 138.83 269.44 122.43 265.11 136.75 249.63"/><polygon class="cls-44" points="138.83 269.44 135.66 296.76 122.43 265.11 138.83 269.44"/><polygon class="cls-9" points="138.83 269.44 145.14 302.59 135.66 296.76 138.83 269.44"/><polygon class="cls-16" points="138.83 269.44 156.68 283.69 145.14 302.59 138.83 269.44"/><path class="cls-7" d="M123.7,232s25.93-14.71,36.33-2.28l5.75,12.1s-8.35,20.19-29,7.79C136.75,249.63,130.29,244.31,123.7,232Z"/><path class="cls-25" d="M148.08,233a8.85,8.85,0,0,1,8.44,6.19,8.85,8.85,0,1,0-16.88,0A8.85,8.85,0,0,1,148.08,233Z"/><path class="cls-44" d="M148.08,245.38a8.85,8.85,0,0,0,8.44-6.19,8.85,8.85,0,0,0-16.88,0A8.85,8.85,0,0,0,148.08,245.38Z"/><circle class="cls-8" cx="149.65" cy="234.88" r="2.54"/><polygon class="cls-32" points="138.83 269.44 156.68 283.69 150.86 253.66 138.83 269.44"/><polygon class="cls-27" points="150.86 253.66 172.38 264.19 156.68 283.69 150.86 253.66"/><polygon class="cls-10" points="172.38 264.19 190.77 242.39 192.79 293.86 172.38 264.19"/><polygon class="cls-11" points="172.38 264.19 156.68 283.69 192.79 293.86 172.38 264.19"/><polygon class="cls-14" points="156.68 283.69 145.14 302.59 192.79 293.86 156.68 283.69"/><polygon class="cls-15" points="145.14 302.59 146.22 345.31 192.79 293.86 145.14 302.59"/><polygon class="cls-20" points="106.67 324.1 145.14 302.59 146.22 345.31 106.67 324.1"/><polygon class="cls-11" points="121.53 292.61 106.67 324.1 94.03 277.95 121.53 292.61"/><polygon class="cls-13" points="121.53 292.61 130.63 310.7 106.67 324.1 121.53 292.61"/><polygon class="cls-13" points="89.77 306.94 58.3 340.82 106.67 324.1 89.77 306.94"/><polygon class="cls-46" points="89.77 306.94 59.15 310.34 58.3 340.82 89.77 306.94"/><polygon class="cls-31" points="59.15 310.34 63.74 298.32 89.77 306.94 59.15 310.34"/><polygon class="cls-31" points="135.66 296.76 130.63 310.7 121.53 292.61 135.66 296.76"/><polygon class="cls-12" points="135.66 296.76 145.14 302.59 130.63 310.7 135.66 296.76"/><polygon class="cls-47" points="134.81 368.88 106.67 324.1 146.22 345.31 134.81 368.88"/><polygon class="cls-20" points="106.67 324.1 95.31 361.26 58.3 340.82 106.67 324.1"/><polygon class="cls-11" points="106.67 324.1 134.81 368.88 95.31 361.26 106.67 324.1"/><polygon class="cls-11" points="132.45 379.91 92.44 392.27 95.31 361.26 132.45 379.91"/><polygon class="cls-49" points="198.02 413.6 214.93 397.82 214.93 417.97 198.02 413.6"/><polygon class="cls-7" points="207.33 404.91 195.42 393.88 196.09 383.29 206.47 383.29 207.33 404.91"/><polygon class="cls-50" points="181.57 391.54 195.42 393.88 179.85 369.92 181.57 391.54"/><polygon class="cls-8" points="196.09 383.29 192.79 355.05 179.85 369.92 196.09 383.29"/><polygon class="cls-7" points="192.79 355.05 214.93 373.66 214.93 354.33 192.79 355.05"/><polygon class="cls-4" points="214.93 373.66 206.47 383.29 207.33 404.91 214.93 397.82 214.93 373.66"/><polygon class="cls-5" points="206.47 383.29 192.79 355.05 214.93 373.66 206.47 383.29"/><polygon class="cls-4" points="196.09 383.29 192.79 355.05 206.47 383.29 196.09 383.29"/><polygon class="cls-2" points="196.09 383.29 195.42 393.88 179.85 369.92 196.09 383.29"/><polygon class="cls-4" points="181.57 391.54 198.02 413.6 207.33 404.91 195.42 393.88 181.57 391.54"/><polygon class="cls-23" points="95.31 361.26 58.3 340.82 52.55 385.96 95.31 361.26"/><polygon class="cls-28" points="58.3 340.82 38.15 355.14 52.55 385.96 58.3 340.82"/><polygon class="cls-24" points="38.15 355.14 29.54 320.51 58.3 340.82 38.15 355.14"/><polygon class="cls-33" points="29.54 320.51 59.15 310.34 58.3 340.82 29.54 320.51"/><polygon class="cls-51" points="29.54 320.51 37.6 289.66 59.15 310.34 29.54 320.51"/><polygon class="cls-52" points="37.6 289.66 59.15 310.34 63.74 298.32 37.6 289.66"/><polygon class="cls-53" points="29.54 320.51 11.55 407.75 38.15 355.14 29.54 320.51"/><polygon class="cls-52" points="38.15 355.14 52.55 385.96 11.55 407.75 38.15 355.14"/><polygon class="cls-43" points="29.54 320.51 0 324.75 37.6 289.66 29.54 320.51"/><polygon class="cls-23" points="108.59 240.28 36.98 264.59 37.6 289.66 108.59 240.28"/><polygon class="cls-54" points="36.98 264.59 38.55 236.4 108.59 240.28 36.98 264.59"/><polygon class="cls-55" points="108.59 240.28 110.92 213.66 123.7 232.01 108.59 240.28"/><polygon class="cls-55" points="36.98 264.59 3.14 281.57 37.6 289.66 36.98 264.59"/><polygon class="cls-56" points="36.98 264.59 6.79 264.05 38.55 236.4 36.98 264.59"/><polygon class="cls-33" points="38.55 236.4 43.45 217.31 108.59 240.28 38.55 236.4"/><polygon class="cls-24" points="78.5 160.48 110.92 213.66 126.68 170.66 78.5 160.48"/><polygon class="cls-22" points="78.5 160.48 63.07 180.14 90.49 180.14 78.5 160.48"/><polygon class="cls-28" points="63.07 180.14 57.06 200.15 90.49 180.14 63.07 180.14"/><polygon class="cls-57" points="57.06 200.15 108.59 240.28 43.45 217.31 57.06 200.15"/><polygon class="cls-24" points="57.06 200.15 110.92 213.66 108.59 240.28 57.06 200.15"/><polygon class="cls-57" points="57.06 200.15 90.49 180.14 110.92 213.66 57.06 200.15"/><polygon class="cls-36" points="57.06 200.15 25.73 183.72 63.07 180.14 57.06 200.15"/><polygon class="cls-25" points="57.06 200.15 19.64 202.28 43.45 217.31 57.06 200.15"/><polygon class="cls-22" points="43.45 217.31 13.95 243.49 38.55 236.4 43.45 217.31"/><polygon class="cls-58" points="78.5 160.48 63.07 180.14 33.15 159.12 78.5 160.48"/><polygon class="cls-59" points="33.15 159.12 48.6 141.77 78.5 160.48 33.15 159.12"/><polygon class="cls-16" points="52.55 385.96 88.27 431.89 92.44 392.27 52.55 385.96"/><polygon class="cls-47" points="95.31 361.26 92.44 392.27 52.55 385.96 95.31 361.26"/><polygon class="cls-32" points="88.27 431.89 132.45 379.91 92.44 392.27 88.27 431.89"/><polygon class="cls-10" points="132.45 379.91 110.75 423.53 88.27 431.89 132.45 379.91"/><polygon class="cls-20" points="132.45 379.91 153.86 412.81 110.75 423.53 132.45 379.91"/><polygon class="cls-20" points="88.27 431.89 106.66 448.03 110.75 423.53 88.27 431.89"/><polygon class="cls-51" points="88.27 431.89 25.23 425.49 68.31 406.23 88.27 431.89"/><polygon class="cls-60" points="52.55 385.96 25.23 425.49 68.31 406.23 52.55 385.96"/><polygon class="cls-24" points="88.27 431.89 45.99 458.52 52.55 428.26 88.27 431.89"/><polygon class="cls-34" points="88.27 431.89 106.66 448.03 45.99 458.52 88.27 431.89"/><polygon class="cls-15" points="106.66 448.03 153.86 412.81 110.75 423.53 106.66 448.03"/><polygon class="cls-17" points="106.66 448.03 54 487.1 65.97 455.07 106.66 448.03"/><polygon class="cls-55" points="106.66 448.03 92.44 486.45 53.46 487.43 106.66 448.03"/><polygon class="cls-21" points="106.66 448.03 134.76 472.23 147.01 438.69 106.66 448.03"/><polygon class="cls-16" points="153.86 412.81 147.01 438.69 106.66 448.03 153.86 412.81"/><polygon class="cls-13" points="173.91 427.35 193.56 445.21 195.85 435.96 173.91 427.35"/><polygon class="cls-30" points="195.85 435.96 214.93 435.19 193.56 445.21 195.85 435.96"/><polygon class="cls-29" points="193.56 445.21 214.93 447.1 214.93 435.19 193.56 445.21"/><polygon class="cls-44" points="193.56 445.21 214.93 460.72 214.93 447.1 193.56 445.21"/><polygon class="cls-47" points="164.3 458.13 134.76 472.23 149.53 488.98 164.3 458.13"/><polygon class="cls-12" points="164.3 458.13 171.84 501.19 149.53 488.98 164.3 458.13"/><polygon class="cls-27" points="171.84 501.19 214.93 522.49 168.5 482.1 171.84 501.19"/><polygon class="cls-44" points="171.84 501.19 191.9 561.42 214.93 522.49 171.84 501.19"/><polygon class="cls-20" points="171.84 501.19 144.74 540.66 149.53 488.98 171.84 501.19"/><polygon class="cls-13" points="171.84 501.19 156.53 523.49 191.9 561.42 171.84 501.19"/><polygon class="cls-10" points="214.93 522.49 201.58 545.05 214.93 558.68 214.93 522.49"/><polygon class="cls-46" points="201.58 545.05 214.93 576.96 214.93 558.68 201.58 545.05"/><polygon class="cls-12" points="168.5 482.1 192.79 471.46 214.93 522.49 168.5 482.1"/><polygon class="cls-20" points="192.79 471.46 214.93 460.72 214.93 522.49 192.79 471.46"/><polygon class="cls-43" points="193.56 445.21 192.79 471.46 214.93 460.72 193.56 445.21"/><polygon class="cls-47" points="193.56 445.21 168.5 482.1 192.79 471.46 193.56 445.21"/><polygon class="cls-18" points="173.91 427.35 164.3 458.13 193.56 445.21 173.91 427.35"/><polygon class="cls-43" points="193.56 445.21 168.5 482.1 164.3 458.13 193.56 445.21"/><polygon class="cls-61" points="153.86 412.81 173.91 427.35 147.01 438.69 153.86 412.81"/><polygon class="cls-42" points="134.76 472.23 110.36 518.71 91.34 486.48 134.76 472.23"/><polygon class="cls-16" points="134.76 472.23 144.74 540.66 149.53 488.98 134.76 472.23"/><polygon class="cls-17" points="134.76 472.23 118.98 502.29 144.74 540.66 134.76 472.23"/><polygon class="cls-35" points="106.66 448.03 134.76 472.23 91.34 486.48 106.66 448.03"/><polygon class="cls-15" points="147.01 438.69 164.3 458.13 134.76 472.23 147.01 438.69"/><polygon class="cls-16" points="147.01 438.69 173.91 427.35 164.3 458.13 147.01 438.69"/><polygon class="cls-16" points="134.81 368.88 132.45 379.91 95.31 361.26 134.81 368.88"/><path class="cls-1" d="M281.85,204.71c5.61,1.89,11.68.09,17.47,1.58s11,4.07,16.51,6c.86.29.49,1.66-.37,1.37-5.21-1.79-10.24-4-15.5-5.68-6.12-1.89-12.49.14-18.47-1.87C280.61,205.78,281,204.42,281.85,204.71Z"/><path class="cls-1" d="M308.59,234.15l.47.47a.71.71,0,0,1-1,1l-.47-.47A.71.71,0,0,1,308.59,234.15Z"/><path class="cls-1" d="M381,380a7.49,7.49,0,0,0,.85,2.95c.4.82-.82,1.54-1.22.71a9.14,9.14,0,0,1-1-3.66A.71.71,0,0,1,381,380Z"/><polygon class="cls-2" points="302.94 118.9 267.67 83.36 255.37 101.86 302.94 118.9"/><polygon class="cls-3" points="267.67 83.36 290.37 84.33 302.94 118.9 267.67 83.36"/><polygon class="cls-4" points="290.37 84.33 278.98 71.15 267.67 83.36 290.37 84.33"/><polygon class="cls-5" points="290.37 84.33 299.83 71.15 278.98 71.15 290.37 84.33"/><polygon class="cls-6" points="299.83 71.15 301.63 47 278.98 71.15 299.83 71.15"/><polygon class="cls-7" points="299.83 71.15 325.07 41.89 301.63 47 299.83 71.15"/><polygon class="cls-8" points="325.07 41.89 325.82 21.25 301.63 47 325.07 41.89"/><polygon class="cls-4" points="325.07 41.89 349.89 19.39 325.82 21.25 325.07 41.89"/><polygon class="cls-3" points="349.89 19.39 336.7 5.12 325.82 21.25 349.89 19.39"/><polygon class="cls-8" points="349.89 19.39 348.47 0 336.7 5.12 349.89 19.39"/><polygon class="cls-2" points="349.89 19.39 372.5 21.36 348.47 0 349.89 19.39"/><polygon class="cls-3" points="372.5 21.36 363.11 29.95 349.89 19.39 372.5 21.36"/><polygon class="cls-7" points="372.5 21.36 378.92 47.27 363.11 29.95 372.5 21.36"/><polygon class="cls-4" points="363.11 89.08 345.3 93.31 325.07 71.15 363.11 89.08"/><polygon class="cls-8" points="345.3 93.31 345.52 129.78 328.81 144.07 345.3 93.31"/><polygon class="cls-9" points="345.3 93.31 302.94 118.9 328.81 144.07 345.3 93.31"/><polygon class="cls-10" points="345.3 93.31 325.07 71.15 302.94 118.9 345.3 93.31"/><polygon class="cls-11" points="325.07 71.15 299.83 71.15 302.94 118.9 325.07 71.15"/><polygon class="cls-12" points="299.83 71.15 290.37 84.33 302.94 118.9 299.83 71.15"/><polygon class="cls-13" points="363.11 89.08 386.89 78.92 366.2 123.65 363.11 89.08"/><polygon class="cls-10" points="386.89 78.92 378.92 47.27 363.11 89.08 386.89 78.92"/><polygon class="cls-14" points="363.11 89.08 345.52 129.78 366.2 123.65 363.11 89.08"/><polygon class="cls-15" points="363.11 89.08 345.52 129.78 345.3 93.31 363.11 89.08"/><polygon class="cls-16" points="366.2 123.65 351.35 160.48 345.52 129.78 366.2 123.65"/><polygon class="cls-17" points="345.52 129.78 328.81 144.07 351.35 160.48 345.52 129.78"/><polygon class="cls-18" points="351.35 160.48 393.78 133.93 360.02 139 351.35 160.48"/><polygon class="cls-19" points="393.78 133.93 366.2 123.65 360.02 139 393.78 133.93"/><polygon class="cls-20" points="366.2 123.65 390.36 109.41 386.89 78.92 366.2 123.65"/><polygon class="cls-21" points="390.36 109.41 385.51 130.84 366.2 123.65 390.36 109.41"/><polygon class="cls-22" points="349.89 19.39 325.07 71.15 325.07 41.89 349.89 19.39"/><polygon class="cls-23" points="325.07 41.89 299.83 71.15 325.07 71.15 325.07 41.89"/><polygon class="cls-24" points="349.89 19.39 363.11 29.95 325.07 71.15 349.89 19.39"/><polygon class="cls-25" points="363.11 29.95 378.92 47.27 325.07 71.15 363.11 29.95"/><polygon class="cls-26" points="296.76 208.23 318.94 213.66 273.86 226.52 296.76 208.23"/><polygon class="cls-27" points="318.94 213.66 306.16 232.01 278.33 224.75 318.94 213.66"/><polygon class="cls-28" points="378.92 47.27 363.11 89.08 325.07 71.15 378.92 47.27"/><polygon class="cls-29" points="306.16 232.01 321.27 240.28 293.11 249.63 306.16 232.01"/><polygon class="cls-6" points="264.08 241.84 257.48 264.19 279.12 253.6 264.08 241.84"/><polygon class="cls-4" points="264.08 241.84 253.64 242.07 257.48 264.19 264.08 241.84"/><polygon class="cls-22" points="318.94 213.66 278.33 203.71 303.18 170.66 318.94 213.66"/><polygon class="cls-22" points="255 180.85 351.35 160.48 328.81 144.07 255 180.85"/><polygon class="cls-14" points="278.33 203.71 269.83 229.74 296.76 208.23 278.33 203.71"/><polygon class="cls-30" points="278.33 203.71 253.96 202.64 264.08 241.84 269.83 229.74 278.33 203.71"/><polygon class="cls-31" points="255 180.85 253.96 202.64 278.33 203.71 255 180.85"/><polygon class="cls-13" points="255 180.85 238.25 203.71 253.96 202.64 255 180.85"/><polygon class="cls-32" points="253.96 202.64 239.09 242.39 264.08 241.84 253.96 202.64"/><polygon class="cls-26" points="253.96 202.64 238.25 203.71 239.09 242.39 253.96 202.64"/><polygon class="cls-24" points="238.25 203.71 214.93 216.72 239.09 242.39 238.25 203.71"/><polygon class="cls-33" points="239.09 242.39 214.93 274.73 214.93 216.72 239.09 242.39"/><polygon class="cls-34" points="239.09 242.39 237.07 293.86 214.93 274.73 239.09 242.39"/><polygon class="cls-35" points="237.07 293.86 214.93 340.82 214.93 274.73 237.07 293.86"/><polygon class="cls-18" points="237.07 293.86 251.26 354.33 214.93 340.82 237.07 293.86"/><polygon class="cls-20" points="257.48 264.19 239.09 242.39 253.64 242.07 257.48 264.19"/><polygon class="cls-23" points="255 180.85 214.93 170.09 238.25 203.71 255 180.85"/><polygon class="cls-25" points="238.25 203.71 214.93 170.09 214.93 216.72 238.25 203.71"/><polygon class="cls-36" points="255 180.85 214.93 103.06 214.93 170.09 255 180.85"/><polygon class="cls-37" points="255 180.85 255.37 101.86 230.54 133.36 255 180.85"/><polygon class="cls-38" points="255.37 101.86 302.94 118.9 255 180.85 255.37 101.86"/><polygon class="cls-38" points="255.37 101.86 231.65 100.65 230.54 133.36 255.37 101.86"/><polygon class="cls-39" points="255.37 101.86 245.55 77.29 231.65 100.65 255.37 101.86"/><polygon class="cls-40" points="231.65 100.65 214.93 103.06 230.54 133.36 231.65 100.65"/><polygon class="cls-3" points="231.65 100.65 223.26 75.35 214.93 103.06 231.65 100.65"/><polygon class="cls-41" points="245.55 77.29 267.67 83.36 255.37 101.86 245.55 77.29"/><polygon class="cls-23" points="302.94 118.9 328.81 144.07 255 180.85 302.94 118.9"/><polygon class="cls-34" points="278.33 203.71 255 180.85 303.18 170.66 278.33 203.71"/><polygon class="cls-28" points="321.27 240.28 335.82 277.95 392.26 289.66 321.27 240.28"/><polygon class="cls-34" points="321.27 240.28 307.43 265.11 328.81 259.81 321.27 240.28"/><polygon class="cls-42" points="307.43 265.11 308.32 292.61 294.2 296.76 307.43 265.11"/><polygon class="cls-17" points="307.43 265.11 328.81 259.81 308.32 292.61 307.43 265.11"/><polygon class="cls-17" points="335.82 277.95 340.08 306.94 392.26 289.66 335.82 277.95"/><polygon class="cls-43" points="335.82 277.95 323.19 324.1 340.08 306.94 335.82 277.95"/><polygon class="cls-43" points="335.82 277.95 328.81 259.81 308.32 292.61 335.82 277.95"/><polygon class="cls-44" points="251.26 354.33 250.83 370.84 228.55 345.84 251.26 354.33"/><polygon class="cls-45" points="251.26 354.33 285.12 380.93 248.28 391.54 251.26 354.33"/><polygon class="cls-46" points="285.12 380.93 276 412.81 248.28 391.54 285.12 380.93"/><polygon class="cls-29" points="251.26 354.33 283.64 345.31 285.12 380.93 251.26 354.33"/><polygon class="cls-44" points="283.64 345.31 237.07 293.86 251.26 354.33 283.64 345.31"/><polygon class="cls-12" points="285.12 380.93 295.05 368.88 283.64 345.31 285.12 380.93"/><polygon class="cls-12" points="228.55 345.84 214.93 354.33 237.07 355.05 228.55 345.84"/><polygon class="cls-47" points="228.55 345.84 214.93 340.82 214.93 354.33 228.55 345.84"/><polygon class="cls-40" points="295.05 368.88 297.41 379.91 285.12 380.93 295.05 368.88"/><polygon class="cls-23" points="297.41 379.91 276 412.81 285.12 380.93 297.41 379.91"/><polygon class="cls-16" points="248.28 391.54 231.83 413.58 246.19 409.88 248.28 391.54"/><polygon class="cls-13" points="291.03 269.44 278.99 253.66 293.11 249.63 291.03 269.44"/><polygon class="cls-20" points="248.28 391.54 246.19 409.88 276 412.81 248.28 391.54"/><path class="cls-16" d="M246.2,409.88"/><polygon class="cls-48" points="214.93 417.97 246.19 409.88 241.14 421.8 214.93 417.97"/><polygon class="cls-41" points="241.14 421.8 255.94 427.35 214.93 424.57 214.93 417.97 241.14 421.8"/><polygon class="cls-2" points="255.94 427.35 234 435.96 214.93 435.19 214.93 424.57 255.94 427.35"/><polygon class="cls-18" points="246.19 409.88 255.94 427.35 241.14 421.8 246.19 409.88"/><polygon class="cls-16" points="246.19 409.88 276 412.81 255.94 427.35 246.19 409.88"/><polygon class="cls-46" points="321.27 240.28 293.11 249.63 307.43 265.11 321.27 240.28"/><polygon class="cls-29" points="293.11 249.63 291.03 269.44 307.43 265.11 293.11 249.63"/><polygon class="cls-44" points="291.03 269.44 294.2 296.76 307.43 265.11 291.03 269.44"/><polygon class="cls-9" points="291.03 269.44 284.71 302.59 294.2 296.76 291.03 269.44"/><polygon class="cls-16" points="291.03 269.44 273.18 283.69 284.71 302.59 291.03 269.44"/><path class="cls-7" d="M306.16,232s-25.93-14.71-36.33-2.28l-5.75,12.1s8.35,20.19,29,7.79C293.11,249.63,299.57,244.31,306.16,232Z"/><path class="cls-25" d="M281.78,233a8.85,8.85,0,0,0-8.44,6.19,8.85,8.85,0,1,1,16.88,0A8.85,8.85,0,0,0,281.78,233Z"/><path class="cls-44" d="M281.78,245.38a8.85,8.85,0,0,1-8.44-6.19,8.85,8.85,0,0,1,16.88,0A8.85,8.85,0,0,1,281.78,245.38Z"/><circle class="cls-8" cx="280.2" cy="234.88" r="2.54"/><polygon class="cls-32" points="291.03 269.44 273.18 283.69 278.99 253.66 291.03 269.44"/><polygon class="cls-27" points="278.99 253.66 257.48 264.19 273.18 283.69 278.99 253.66"/><polygon class="cls-10" points="257.48 264.19 239.09 242.39 237.07 293.86 257.48 264.19"/><polygon class="cls-11" points="257.48 264.19 273.18 283.69 237.07 293.86 257.48 264.19"/><polygon class="cls-14" points="273.18 283.69 284.71 302.59 237.07 293.86 273.18 283.69"/><polygon class="cls-15" points="284.71 302.59 283.64 345.31 237.07 293.86 284.71 302.59"/><polygon class="cls-20" points="323.19 324.1 284.71 302.59 283.64 345.31 323.19 324.1"/><polygon class="cls-11" points="308.32 292.61 323.19 324.1 335.82 277.95 308.32 292.61"/><polygon class="cls-13" points="308.32 292.61 299.23 310.7 323.19 324.1 308.32 292.61"/><polygon class="cls-13" points="340.08 306.94 371.55 340.82 323.19 324.1 340.08 306.94"/><polygon class="cls-46" points="340.08 306.94 370.7 310.34 371.55 340.82 340.08 306.94"/><polygon class="cls-31" points="370.7 310.34 366.12 298.32 340.08 306.94 370.7 310.34"/><polygon class="cls-31" points="294.2 296.76 299.23 310.7 308.32 292.61 294.2 296.76"/><polygon class="cls-12" points="294.2 296.76 284.71 302.59 299.23 310.7 294.2 296.76"/><polygon class="cls-47" points="295.05 368.88 323.19 324.1 283.64 345.31 295.05 368.88"/><polygon class="cls-20" points="323.19 324.1 334.54 361.26 371.55 340.82 323.19 324.1"/><polygon class="cls-11" points="323.19 324.1 295.05 368.88 334.54 361.26 323.19 324.1"/><polygon class="cls-11" points="297.41 379.91 337.42 392.27 334.54 361.26 297.41 379.91"/><polygon class="cls-49" points="231.83 413.6 214.93 397.82 214.93 417.97 231.83 413.6"/><polygon class="cls-7" points="222.53 404.91 234.43 393.88 233.76 383.29 223.38 383.29 222.53 404.91"/><polygon class="cls-50" points="248.28 391.54 234.43 393.88 250.01 369.92 248.28 391.54"/><polygon class="cls-8" points="233.76 383.29 237.07 355.05 250.01 369.92 233.76 383.29"/><polygon class="cls-7" points="237.07 355.05 214.93 373.66 214.93 354.33 237.07 355.05"/><polygon class="cls-4" points="214.93 373.66 223.38 383.29 222.53 404.91 214.93 397.82 214.93 373.66"/><polygon class="cls-5" points="223.38 383.29 237.07 355.05 214.93 373.66 223.38 383.29"/><polygon class="cls-4" points="233.76 383.29 237.07 355.05 223.38 383.29 233.76 383.29"/><polygon class="cls-2" points="233.76 383.29 234.43 393.88 250.01 369.92 233.76 383.29"/><polygon class="cls-4" points="248.28 391.54 231.83 413.6 222.53 404.91 234.43 393.88 248.28 391.54"/><polygon class="cls-23" points="334.54 361.26 371.55 340.82 377.31 385.96 334.54 361.26"/><polygon class="cls-28" points="371.55 340.82 391.71 355.14 377.31 385.96 371.55 340.82"/><polygon class="cls-24" points="391.71 355.14 400.32 320.51 371.55 340.82 391.71 355.14"/><polygon class="cls-33" points="400.32 320.51 370.7 310.34 371.55 340.82 400.32 320.51"/><polygon class="cls-51" points="400.32 320.51 392.26 289.66 370.7 310.34 400.32 320.51"/><polygon class="cls-52" points="392.26 289.66 370.7 310.34 366.12 298.32 392.26 289.66"/><polygon class="cls-53" points="400.32 320.51 418.31 407.75 391.71 355.14 400.32 320.51"/><polygon class="cls-52" points="391.71 355.14 377.31 385.96 418.31 407.75 391.71 355.14"/><polygon class="cls-43" points="400.32 320.51 429.86 324.75 392.26 289.66 400.32 320.51"/><polygon class="cls-23" points="321.27 240.28 392.88 264.59 392.26 289.66 321.27 240.28"/><polygon class="cls-54" points="392.88 264.59 391.31 236.4 321.27 240.28 392.88 264.59"/><polygon class="cls-55" points="321.27 240.28 318.94 213.66 306.16 232.01 321.27 240.28"/><polygon class="cls-55" points="392.88 264.59 426.71 281.57 392.26 289.66 392.88 264.59"/><polygon class="cls-56" points="392.88 264.59 423.07 264.05 391.31 236.4 392.88 264.59"/><polygon class="cls-33" points="391.31 236.4 386.41 217.31 321.27 240.28 391.31 236.4"/><polygon class="cls-24" points="351.35 160.48 318.94 213.66 303.18 170.66 351.35 160.48"/><polygon class="cls-22" points="351.35 160.48 366.79 180.14 339.37 180.14 351.35 160.48"/><polygon class="cls-28" points="366.79 180.14 372.8 200.15 339.37 180.14 366.79 180.14"/><polygon class="cls-57" points="372.8 200.15 321.27 240.28 386.41 217.31 372.8 200.15"/><polygon class="cls-24" points="372.8 200.15 318.94 213.66 321.27 240.28 372.8 200.15"/><polygon class="cls-57" points="372.8 200.15 339.37 180.14 318.94 213.66 372.8 200.15"/><polygon class="cls-36" points="372.8 200.15 404.13 183.72 366.79 180.14 372.8 200.15"/><polygon class="cls-25" points="372.8 200.15 410.22 202.28 386.41 217.31 372.8 200.15"/><polygon class="cls-22" points="386.41 217.31 415.91 243.49 391.31 236.4 386.41 217.31"/><polygon class="cls-58" points="351.35 160.48 366.79 180.14 396.7 159.12 351.35 160.48"/><polygon class="cls-59" points="396.7 159.12 381.25 141.77 351.35 160.48 396.7 159.12"/><polygon class="cls-16" points="377.31 385.96 341.59 431.89 337.42 392.27 377.31 385.96"/><polygon class="cls-47" points="334.54 361.26 337.42 392.27 377.31 385.96 334.54 361.26"/><polygon class="cls-32" points="341.59 431.89 297.41 379.91 337.42 392.27 341.59 431.89"/><polygon class="cls-10" points="297.41 379.91 319.1 423.53 341.59 431.89 297.41 379.91"/><polygon class="cls-20" points="297.41 379.91 276 412.81 319.1 423.53 297.41 379.91"/><polygon class="cls-20" points="341.59 431.89 323.2 448.03 319.1 423.53 341.59 431.89"/><polygon class="cls-51" points="341.59 431.89 404.63 425.49 361.55 406.23 341.59 431.89"/><polygon class="cls-60" points="377.31 385.96 404.63 425.49 361.55 406.23 377.31 385.96"/><polygon class="cls-24" points="341.59 431.89 383.87 458.52 377.31 428.26 341.59 431.89"/><polygon class="cls-34" points="341.59 431.89 323.2 448.03 383.87 458.52 341.59 431.89"/><polygon class="cls-15" points="323.2 448.03 276 412.81 319.1 423.53 323.2 448.03"/><polygon class="cls-17" points="323.2 448.03 375.86 487.1 363.88 455.07 323.2 448.03"/><polygon class="cls-55" points="323.2 448.03 337.42 486.45 376.39 487.43 323.2 448.03"/><polygon class="cls-21" points="323.2 448.03 295.09 472.23 282.84 438.69 323.2 448.03"/><polygon class="cls-16" points="276 412.81 282.84 438.69 323.2 448.03 276 412.81"/><polygon class="cls-13" points="255.94 427.35 236.3 445.21 234 435.96 255.94 427.35"/><polygon class="cls-30" points="234 435.96 214.93 435.19 236.3 445.21 234 435.96"/><polygon class="cls-29" points="236.3 445.21 214.93 447.1 214.9 435.19 236.3 445.21"/><polygon class="cls-44" points="236.3 445.21 214.93 460.72 214.93 447.1 236.3 445.21"/><polygon class="cls-47" points="265.56 458.13 295.09 472.23 280.33 488.98 265.56 458.13"/><polygon class="cls-12" points="265.56 458.13 258.02 501.19 280.33 488.98 265.56 458.13"/><polygon class="cls-27" points="258.02 501.19 214.93 522.49 261.36 482.1 258.02 501.19"/><polygon class="cls-44" points="258.02 501.19 237.95 561.42 214.93 522.49 258.02 501.19"/><polygon class="cls-20" points="258.02 501.19 285.12 540.66 280.33 488.98 258.02 501.19"/><polygon class="cls-13" points="258.02 501.19 273.33 523.49 237.95 561.42 258.02 501.19"/><polygon class="cls-10" points="214.93 522.49 228.27 545.05 214.93 558.68 214.93 522.49"/><polygon class="cls-46" points="228.27 545.05 214.93 576.96 214.93 558.68 228.27 545.05"/><polygon class="cls-12" points="261.36 482.1 237.07 471.46 214.93 522.49 261.36 482.1"/><polygon class="cls-20" points="237.07 471.46 214.93 460.72 214.93 522.49 237.07 471.46"/><polygon class="cls-43" points="236.3 445.21 237.07 471.46 214.93 460.72 236.3 445.21"/><polygon class="cls-47" points="236.3 445.21 261.36 482.1 237.07 471.46 236.3 445.21"/><polygon class="cls-18" points="255.94 427.35 265.56 458.13 236.3 445.21 255.94 427.35"/><polygon class="cls-43" points="236.3 445.21 261.36 482.1 265.56 458.13 236.3 445.21"/><polygon class="cls-61" points="276 412.81 255.94 427.35 282.84 438.69 276 412.81"/><polygon class="cls-42" points="295.09 472.23 319.5 518.71 338.52 486.48 295.09 472.23"/><polygon class="cls-16" points="295.09 472.23 285.12 540.66 280.33 488.98 295.09 472.23"/><polygon class="cls-17" points="295.09 472.23 310.88 502.29 285.12 540.66 295.09 472.23"/><polygon class="cls-35" points="323.2 448.03 295.09 472.23 338.52 486.48 323.2 448.03"/><polygon class="cls-15" points="282.84 438.69 265.56 458.13 295.09 472.23 282.84 438.69"/><polygon class="cls-16" points="282.84 438.69 255.94 427.35 265.56 458.13 282.84 438.69"/><polygon class="cls-16" points="295.05 368.88 297.41 379.91 334.54 361.26 295.05 368.88"/></g></g></svg>